<?xml version="1.0" standalone="no"?>
<!DOCTYPE svg PUBLIC "-//W3C//DTD SVG 20010904//EN"
 "http://www.w3.org/TR/2001/REC-SVG-20010904/DTD/svg10.dtd">
<svg version="1.0" xmlns="http://www.w3.org/2000/svg"
 width="300.000000pt" height="300.000000pt" viewBox="0 0 300.000000 300.000000"
 preserveAspectRatio="xMidYMid meet">
<metadata>
Created by potrace 1.11, written by Peter Selinger 2001-2013
</metadata>
<g transform="translate(0.000000,300.000000) scale(0.100000,-0.100000)"
fill="#000000" stroke="none">
<path d="M1503 2528 c-139 -211 -238 -471 -268 -701 -7 -56 -8 -252 -2 -282 3
-11 8 -40 12 -65 18 -111 119 -360 146 -360 26 0 114 182 145 300 20 75 23 81
29 55 13 -60 47 -159 67 -199 35 -71 89 -156 98 -156 11 0 41 65 80 171 122
326 88 711 -93 1078 -49 99 -138 251 -147 251 -3 0 -34 -42 -67 -92z"/>
<path d="M670 2428 c-1 -7 -4 -40 -8 -73 -9 -77 -8 -417 2 -475 20 -126 28
-162 52 -235 64 -197 168 -338 317 -428 59 -36 183 -80 254 -91 28 -4 31 -2
23 12 -5 10 -26 35 -46 57 -75 82 -158 214 -194 310 -11 28 -10 28 32 -13 24
-23 62 -54 84 -67 l42 -25 -14 40 c-23 67 -32 150 -31 296 1 132 -1 143 -23
175 -42 61 -83 100 -181 170 -116 82 -178 150 -249 269 -29 50 -54 90 -56 90
-2 0 -4 -6 -4 -12z"/>
<path d="M2420 2408 c-25 -63 -90 -167 -136 -217 -25 -28 -92 -82 -149 -120
-150 -102 -222 -191 -205 -252 17 -58 1 -297 -25 -371 -7 -21 -11 -38 -8 -38
16 0 74 39 115 78 l50 46 -26 -58 c-44 -99 -103 -188 -193 -293 l-53 -61 32 5
c184 26 349 124 458 269 53 71 129 246 145 334 3 14 7 36 10 50 28 134 38 370
22 535 -12 133 -17 144 -37 93z"/>
<path d="M1472 1022 c-23 -15 -22 -51 2 -67 41 -27 80 10 56 55 -11 21 -35 26
-58 12z"/>
<path d="M2876 1012 c-2 -4 -4 -28 -4 -52 0 -25 -1 -58 -1 -73 l-1 -28 -29 22
c-61 45 -160 19 -196 -51 -37 -72 -5 -183 61 -215 43 -20 115 -16 143 9 19 17
33 12 25 -9 -4 -8 6 -12 33 -11 l38 1 0 205 0 204 -32 3 c-18 2 -34 -1 -37 -5z
m-31 -197 c18 -17 25 -35 25 -62 -1 -50 -26 -82 -73 -90 -66 -10 -110 52 -87
123 13 40 33 53 78 54 22 0 41 -8 57 -25z"/>
<path d="M150 984 c-53 -23 -99 -73 -114 -125 -41 -137 54 -260 202 -260 64 0
122 29 166 84 29 36 31 45 31 117 0 72 -2 81 -31 116 -16 21 -48 47 -70 58
-48 25 -136 30 -184 10z m151 -71 c40 -24 68 -84 62 -131 -21 -157 -244 -153
-258 5 -10 105 106 179 196 126z"/>
<path d="M1629 960 c-1 -58 -1 -282 0 -322 1 -36 2 -37 38 -35 l36 2 0 77 0
76 86 -1 86 -2 3 33 c2 17 0 32 -5 33 -4 0 -44 1 -88 2 l-80 2 -1 53 -1 52 99
0 99 0 -3 32 -3 33 -132 0 -133 1 -1 -36z"/>
<path d="M525 901 c-19 -6 -20 -15 -20 -151 l0 -145 35 0 35 0 2 65 c0 36 2
77 2 91 1 36 30 69 61 71 69 3 72 -2 80 -132 l5 -95 33 -3 c30 -3 32 -1 33 30
4 163 3 159 31 183 20 17 36 22 55 19 47 -8 52 -22 54 -132 l1 -103 37 3 36 3
1 110 c1 61 -3 119 -9 130 -14 28 -47 55 -69 56 -67 5 -83 0 -113 -29 l-28
-29 -27 30 c-34 38 -104 42 -150 8 -29 -21 -30 -21 -30 -2 0 21 -24 30 -55 22z"/>
<path d="M1106 900 c-18 -6 -19 -17 -18 -136 0 -71 1 -136 1 -145 1 -13 10
-17 36 -17 l35 0 0 90 c0 85 1 91 29 118 22 23 35 28 57 24 51 -9 58 -24 59
-131 l0 -98 38 -2 37 -2 0 112 c0 94 -3 117 -20 145 -19 30 -57 48 -97 45 -7
0 -22 -1 -33 -2 -12 0 -32 -12 -45 -26 l-25 -24 0 23 c0 26 -23 37 -54 26z"/>
<path d="M1478 902 c-16 -3 -18 -19 -18 -153 l0 -149 35 0 c21 0 35 5 36 13 1
19 1 144 0 222 -1 74 -3 77 -53 67z"/>
<path d="M2041 899 c-72 -15 -120 -78 -116 -153 4 -90 55 -138 148 -142 66 -3
113 18 143 64 26 39 25 132 -2 168 -43 58 -102 79 -173 63z m89 -72 c45 -36
46 -107 3 -146 -21 -18 -34 -22 -62 -17 -48 7 -71 37 -71 91 0 35 5 48 26 64
29 23 81 27 104 8z"/>
<path d="M2395 901 c-68 -17 -111 -64 -118 -133 -6 -50 9 -90 47 -127 28 -28
43 -33 92 -37 68 -6 114 13 148 59 29 40 30 140 1 179 -34 46 -111 73 -170 59z
m90 -78 c42 -41 42 -104 0 -140 -31 -27 -62 -29 -95 -6 -35 24 -40 33 -40 76
0 50 35 87 84 87 19 0 42 -7 51 -17z"/>
</g>
</svg>
